<svg xmlns="http://www.w3.org/2000/svg" viewBox="0 0 1200 420" role="img" aria-label="¯√">
  <defs>
    <linearGradient id="wood" x1="0" y1="0" x2="0" y2="1">
      <stop offset="0%" stop-color="#8b5a2b"/>
      <stop offset="100%" stop-color="#6b4423"/>
    </linearGradient>
    <linearGradient id="shelf" x1="0" y1="0" x2="0" y2="1">
      <stop offset="0%" stop-color="#a67c52"/>
      <stop offset="100%" stop-color="#7a5530"/>
    </linearGradient>
  </defs>
  <rect width="1200" height="420" fill="#f3efe6"/>
  <rect x="40" y="30" width="1120" height="360" rx="8" fill="url(#wood)" stroke="#5a3a1e" stroke-width="3"/>
  <rect x="60" y="70" width="1080" height="18" rx="3" fill="url(#shelf)"/>
  <rect x="60" y="200" width="1080" height="18" rx="3" fill="url(#shelf)"/>
  <rect x="60" y="330" width="1080" height="18" rx="3" fill="url(#shelf)"/>
  <rect x="80" y="88" width="52" height="100" rx="3" fill="#b82020"/>
  <rect x="142" y="88" width="48" height="100" rx="3" fill="#2a6b8c"/>
  <rect x="200" y="88" width="54" height="100" rx="3" fill="#4a8c5c"/>
  <rect x="264" y="88" width="46" height="100" rx="3" fill="#c47a20"/>
  <rect x="320" y="88" width="50" height="100" rx="3" fill="#6b4f8c"/>
  <rect x="380" y="88" width="44" height="100" rx="3" fill="#3d6b8c"/>
  <rect x="90" y="218" width="50" height="100" rx="3" fill="#8c4a5c"/>
  <rect x="150" y="218" width="46" height="100" rx="3" fill="#5c8c6b"/>
  <rect x="206" y="218" width="52" height="100" rx="3" fill="#7a4a8c"/>
  <rect x="268" y="218" width="48" height="100" rx="3" fill="#8c6b4a"/>
  <rect x="326" y="218" width="54" height="100" rx="3" fill="#4a7a8c"/>
  <rect x="390" y="218" width="44" height="100" rx="3" fill="#6b8c3d"/>
</svg>
