<svg xmlns="http://www.w3.org/2000/svg" viewBox="0 0 240 320" fill="none">
  <rect width="240" height="320" fill="#e8e4dc"/>
  <path d="M36 48c0-6 5-11 11-11h68v246H47c-6 0-11-5-11-11V48z" fill="#f5f1ea" stroke="#2a2a2a" stroke-width="2.5"/>
  <path d="M204 48c0-6-5-11-11-11H125v246h68c6 0 11-5 11-11V48z" fill="#efe9df" stroke="#2a2a2a" stroke-width="2.5"/>
  <path d="M115 37v246" stroke="#2a2a2a" stroke-width="2"/>
  <path d="M52 72h56M52 96h48M52 120h52M52 144h40" stroke="#8a8278" stroke-width="1.5" stroke-linecap="round"/>
  <path d="M132 72h56M132 96h44M132 120h50M132 144h38" stroke="#8a8278" stroke-width="1.5" stroke-linecap="round"/>
  <text x="120" y="290" text-anchor="middle" fill="#6b635a" font-family="Georgia, serif" font-size="13" letter-spacing="2">åŒ</text>
</svg>
